<?xml version="1.0" standalone="no"?>
<!DOCTYPE svg PUBLIC "-//W3C//DTD SVG 20010904//EN"
 "http://www.w3.org/TR/2001/REC-SVG-20010904/DTD/svg10.dtd">
<svg version="1.0" xmlns="http://www.w3.org/2000/svg"
 width="820.000000pt" height="820.000000pt" viewBox="0 0 820.000000 820.000000"
 preserveAspectRatio="xMidYMid meet">
<metadata>
Created by potrace 1.14, written by Peter Selinger 2001-2017
</metadata>
<g transform="translate(0.000000,820.000000) scale(0.100000,-0.100000)"
fill="#000000" stroke="none">
<path d="M2435 5902 c-3 -3 -31 -6 -62 -8 -109 -6 -218 -14 -243 -19 -51 -10
-108 -14 -220 -17 -105 -3 -115 -1 -112 15 3 19 -23 24 -34 6 -4 -7 -25 -9
-59 -4 -33 4 -56 2 -60 -4 -3 -6 -39 -10 -83 -9 -58 1 -99 -5 -167 -26 -142
-43 -176 -57 -173 -74 2 -8 -4 -18 -12 -22 -8 -4 -37 -18 -65 -31 -27 -13 -54
-29 -58 -36 -5 -8 -12 -11 -17 -8 -5 3 -28 -13 -52 -35 -27 -27 -48 -40 -60
-37 -10 3 -18 0 -18 -6 0 -7 -9 -23 -19 -37 -16 -20 -22 -22 -34 -12 -12 10
-22 4 -56 -37 -22 -27 -41 -53 -41 -58 0 -5 -12 -18 -27 -30 -31 -23 -159
-230 -149 -240 3 -4 -1 -17 -9 -30 -9 -13 -13 -28 -10 -33 9 -15 -11 -45 -31
-45 -31 0 -96 -125 -113 -215 -6 -36 -19 -100 -28 -143 -13 -59 -14 -80 -5
-89 25 -25 10 -79 -43 -154 -16 -23 -20 -45 -21 -124 -1 -52 -7 -122 -14 -155
-20 -97 0 -196 82 -410 38 -97 62 -141 144 -265 128 -194 265 -298 589 -445
68 -31 262 -103 475 -177 80 -27 149 -53 154 -58 5 -5 16 -4 25 2 13 8 41 2
114 -21 54 -17 106 -31 118 -31 11 0 30 -5 42 -12 12 -7 31 -13 42 -15 11 -2
67 -19 125 -38 58 -19 134 -41 170 -49 36 -9 93 -26 127 -40 34 -13 81 -27
105 -31 24 -4 90 -18 146 -32 98 -23 168 -32 307 -37 49 -2 60 -5 59 -19 -1
-10 5 -17 15 -17 9 0 22 -5 29 -12 7 -7 48 -12 102 -13 50 -1 93 -5 97 -9 3
-3 43 -6 88 -6 44 0 86 -5 91 -10 13 -13 708 -17 737 -5 10 4 31 5 47 2 16 -4
32 -2 35 3 7 12 61 12 90 1 21 -8 92 5 112 22 17 12 679 21 700 8 10 -5 38 -4
72 4 31 7 72 16 91 19 19 3 71 12 115 20 44 8 118 20 165 26 47 6 162 30 255
52 156 37 223 55 343 94 23 8 67 14 97 14 29 0 56 4 59 9 4 5 25 12 49 16 23
3 60 10 82 15 22 5 83 19 135 31 52 11 141 34 197 50 56 16 135 34 177 39 41
5 101 19 133 30 32 12 71 26 87 31 70 21 251 136 315 199 84 82 116 142 141
266 11 55 26 121 35 148 24 80 20 223 -11 336 -14 52 -30 100 -34 105 -4 6
-11 57 -14 115 -8 123 -27 222 -55 285 -51 115 -172 261 -248 300 -21 10 -74
40 -118 65 -86 49 -188 96 -275 129 -30 11 -68 26 -85 32 -16 7 -32 13 -35 14
-18 4 -87 29 -95 34 -5 3 -14 6 -20 7 -11 2 -154 58 -200 79 -16 7 -75 35
-130 60 -55 26 -156 70 -225 97 -69 27 -129 53 -135 56 -5 4 -15 7 -21 8 -6 1
-27 9 -45 17 -19 8 -54 23 -79 32 -25 9 -56 22 -70 28 -14 5 -29 11 -35 13 -9
2 -112 39 -145 51 -22 9 -22 9 -65 17 -22 4 -47 10 -55 13 -8 3 -33 8 -55 10
-22 2 -77 15 -122 29 -45 14 -90 27 -100 29 -126 26 -167 34 -218 40 -57 7
-73 9 -115 20 -38 10 -65 16 -110 25 -25 5 -56 12 -70 15 -14 3 -41 8 -60 11
-19 2 -51 7 -70 10 -19 3 -60 9 -90 14 -30 4 -82 16 -115 25 -74 21 -69 20
-130 29 -27 4 -66 12 -85 16 -19 5 -60 12 -90 15 -79 10 -90 11 -156 25 -59
13 -70 15 -134 23 -48 6 -202 20 -220 19 -8 0 -40 4 -70 9 -52 8 -88 13 -190
24 -25 2 -65 7 -90 10 -25 2 -135 16 -245 31 -110 15 -240 28 -290 29 -83 3
-284 13 -363 19 -18 1 -35 0 -37 -2z"/>
<path d="M7185 2830 c-19 -8 -19 -9 3 -9 12 -1 22 4 22 9 0 6 -1 10 -2 9 -2 0
-12 -4 -23 -9z"/>
</g>
</svg>
